Coordinates
version=1
nRows=19
nColumns=24
inDegrees=yes

Units are S.I. units (second, meters, Newtons, ...)
Angles are in degrees.

endheader
time	pelvis_tilt	pelvis_list	pelvis_rotation	pelvis_tx	pelvis_ty	pelvis_tz	hip_flexion_r	hip_adduction_r	hip_rotation_r	knee_angle_r	ankle_angle_r	subtalar_angle_r	mtp_angle_r	hip_flexion_l	hip_adduction_l	hip_rotation_l	knee_angle_l	ankle_angle_l	subtalar_angle_l	mtp_angle_l	lumbar_extension	lumbar_bending	lumbar_rotation
      0.78766667	      1.23783153	     -3.84678128	      1.69854587	     -0.34800569	      1.00565077	      0.30814350	      8.37346927	      9.41649754	     -1.83162985	    -13.97784996	      3.25013730	    -16.06403145	      0.05523701	     18.06329105	     -4.50328779	      1.05172815	    -68.68152762	     -6.49780427	     -8.39315491	      3.36843537	     -1.18807897	      7.47611347	      1.04503506
      0.79183333	      1.27609562	     -3.73947174	      1.56767527	     -0.34289948	      1.00636297	      0.30846142	      7.83286262	      9.32726593	     -1.75956282	    -13.68492544	      3.38831151	    -15.83815244	      0.08750716	     18.58661048	     -4.39771755	      1.00742958	    -68.40447875	     -5.92406093	     -8.63177898	      3.17739800	     -1.28940345	      7.35505336	      1.22266858
      0.79600000	      1.31028814	     -3.63782842	      1.42573757	     -0.33780936	      1.00705250	      0.30878581	      7.28851663	      9.24613322	     -1.64303363	    -13.37463838	      3.52442359	    -15.62107455	      0.10943810	     19.09757794	     -4.30006213	      0.95774974	    -68.07165346	     -5.36235382	     -8.82715801	      3.04047940	     -1.40612447	      7.24488874	      1.38632083
      0.80016667	      1.34506630	     -3.54451885	      1.27638470	     -0.33270030	      1.00770721	      0.30911488	      6.74103128	      9.16929492	     -1.54497380	    -13.06028521	      3.65822086	    -15.39616403	      0.12660383	     19.58891900	     -4.21867507	      0.89328695	    -67.68620438	     -4.78975632	     -8.99346641	      2.91179860	     -1.50799798	      7.14618148	      1.56691726
      0.80433333	      1.38036286	     -3.43903825	      1.11543277	     -0.32760747	      1.00833376	      0.30945216	      6.19732132	      9.07597308	     -1.44428316	    -12.75454335	      3.80039448	    -15.14365181	      0.14047314	     20.05977881	     -4.12695965	      0.81405353	    -67.24314919	     -4.23523411	     -9.13994935	      2.77938890	     -1.62191363	      7.02785186	      1.76564078
      0.80850000	      1.34988221	     -3.34536150	      0.95369980	     -0.32254688	      1.00881146	      0.30977140	      5.73254034	      8.99270786	     -1.32405974	    -12.45971675	      3.92554753	    -14.98283453	      0.14681091	     20.59734625	     -4.03938413	      0.74901003	    -66.76588418	     -3.69244525	     -9.30278612	      2.74360531	     -1.65928255	      6.93752657	      1.84134700
      0.81266667	      1.43332570	     -3.25284009	      0.77582244	     -0.31741228	      1.00945368	      0.31012074	      5.12107375	      8.90600381	     -1.23465462	    -12.12519730	      4.07765502	    -14.65453975	      0.15402469	     20.96954596	     -3.98224206	      0.63322034	    -66.20722149	     -3.15844898	     -9.33659920	      2.63040491	     -1.81492168	      6.83531222	      2.12596070
      0.81683333	      1.46125311	     -3.16642357	      0.59585312	     -0.31232481	      1.00995030	      0.31046225	      4.58532220	      8.82189754	     -1.13872779	    -11.81544874	      4.22104935	    -14.36209498	      0.15785946	     21.39843982	     -3.92440508	      0.52871872	    -65.61872775	     -2.64622219	     -9.40055835	      2.51150074	     -1.91930318	      6.73974212	      2.33359305
      0.82100000	      1.45435371	     -3.08756229	      0.39895858	     -0.30724790	      1.01034945	      0.31081722	      4.09714705	      8.74347546	     -1.03382406	    -11.52344579	      4.35331642	    -14.10976738	      0.15986253	     21.85034972	     -3.88361928	      0.40052330	    -64.98881115	     -2.14213186	     -9.45496030	      2.42434120	     -1.97200179	      6.65581072	      2.48444253
      0.82516667	      1.45218525	     -3.01116326	      0.21576520	     -0.30218638	      1.01072496	      0.31114252	      3.59477400	      8.66559532	     -0.90952523	    -11.20957312	      4.48205642	    -13.86324379	      0.16156181	     22.28305702	     -3.83240891	      0.30127891	    -64.31136698	     -1.66578598	     -9.49639383	      2.36003969	     -2.05454268	      6.57330310	      2.62822128
      0.82933333	      1.51479986	     -2.93740919	      0.04837703	     -0.29707561	      1.01116861	      0.31145046	      3.01024258	      8.58167767	     -0.85429921	    -10.86989417	      4.62560080	    -13.53060180	      0.15907065	     22.62016978	     -3.79040218	      0.19572677	    -63.57190457	     -1.24251128	     -9.46967310	      2.24257035	     -2.18556294	      6.48660978	      2.87971827
      0.83350000	      1.53411536	     -2.87002951	     -0.15372688	     -0.29200926	      1.01149949	      0.31177018	      2.49078935	      8.50350332	     -0.73591345	    -10.56467750	      4.74455470	    -13.26263095	      0.15816536	     22.98684513	     -3.76130117	      0.06392558	    -62.79385658	     -0.81566677	     -9.47153520	      2.16167565	     -2.27832636	      6.43090421	      3.01408005
      0.83766667	      1.55787923	     -2.81489557	     -0.31048086	     -0.28692152	      1.01178823	      0.31203398	      1.95497782	      8.43296640	     -0.68002775	    -10.22969155	      4.87948992	    -12.93624972	      0.15202417	     23.34078484	     -3.72676082	     -0.01741754	    -61.97823718	     -0.43610469	     -9.42414710	      2.02155019	     -2.37596236	      6.37476397	      3.24029883
      0.84183333	      1.55209981	     -2.75267250	     -0.51382988	     -0.28186233	      1.01199077	      0.31234593	      1.46844614	      8.35512521	     -0.55227381	     -9.93025154	      4.99534038	    -12.68840017	      0.15179352	     23.70151058	     -3.70426017	     -0.15351243	    -61.11466338	     -0.07243531	     -9.40934565	      1.94760665	     -2.43623530	      6.31609989	      3.34067392
      0.84600000	      1.58766514	     -2.69839706	     -0.69078429	     -0.27677308	      1.01223590	      0.31262112	      0.92168110	      8.28132483	     -0.45173029	     -9.59673299	      5.11021924	    -12.41188420	      0.15086178	     23.99669560	     -3.68112657	     -0.26536832	    -60.19954017	      0.25816482	     -9.35886470	      1.86426513	     -2.54495395	      6.26251542	      3.49430526
      0.85016667	      1.62851856	     -2.65562463	     -0.83657901	     -0.27166438	      1.01242468	      0.31284711	      0.36809704	      8.21341729	     -0.41958662	     -9.25598046	      5.23577836	    -12.09476911	      0.14674188	     24.27705569	     -3.65857618	     -0.35136584	    -59.25168514	      0.54533380	     -9.30341204	      1.72286828	     -2.65492876	      6.20954040	      3.69797585
      0.85433333	      1.61579576	     -2.60640069	     -1.02148189	     -0.26659587	      1.01251633	      0.31310141	     -0.11019905	      8.14057415	     -0.28299761	     -8.95118557	      5.34340241	    -11.86197649	      0.14763821	     24.58805959	     -3.63681066	     -0.46277819	    -58.25111609	      0.81621265	     -9.26625930	      1.64854092	     -2.70938474	      6.17454791	      3.78002651
      0.85850000	      1.65493749	     -2.55281609	     -1.18138519	     -0.26148258	      1.01264135	      0.31332580	     -0.65615980	      8.05756372	     -0.20053147	     -8.62189332	      5.45389667	    -11.59938577	      0.14807941	     24.82027450	     -3.60655009	     -0.57088444	    -57.20215904	      1.05632482	     -9.21390074	      1.55749114	     -2.81515498	      6.11975847	      3.91404187
      0.86266667	      1.67346538	     -2.51704999	     -1.33069625	     -0.25638357	      1.01268273	      0.31352468	     -1.17568298	      7.99281853	     -0.11346545	     -8.29558939	      5.56586471	    -11.34762817	      0.14958964	     25.06418961	     -3.58766247	     -0.66091670	    -56.12349221	      1.27243851	     -9.16523061	      1.46705070	     -2.90047843	      6.08616823	      4.03320868
